<?xml version="1.0" encoding="utf-8"?>
<!-- Generator: Adobe Illustrator 23.0.1, SVG Export Plug-In . SVG Version: 6.00 Build 0)  -->
<svg version="1.1" id="Слой_1" xmlns="http://www.w3.org/2000/svg" xmlns:xlink="http://www.w3.org/1999/xlink" x="0px" y="0px"
	 viewBox="0 0 40 40" style="enable-background:new 0 0 40 40;" xml:space="preserve">
<style type="text/css">
	.st0{fill:#7100DF;}
</style>
<title></title>
<g id="Bootstrap">
	<path class="st0" d="M23,21.4c-0.5-0.4-1.1-0.6-1.7-0.5H17v4.4h4.3c0.6,0,1.2-0.2,1.7-0.6c0.4-0.4,0.7-1,0.7-1.6
		C23.7,22.4,23.4,21.8,23,21.4z M22.4,18.6c0.4-0.4,0.6-0.9,0.6-1.4c0.1-0.6-0.1-1.1-0.5-1.5c-0.4-0.3-0.9-0.5-1.5-0.4h-4v3.9h4
		C21.5,19.1,22,18.9,22.4,18.6L22.4,18.6z M28,8H12c-2.2,0-4,1.8-4,4v16c0,2.2,1.8,4,4,4h16c2.2,0,4-1.8,4-4V12C32,9.8,30.2,8,28,8z
		 M25.8,24.9c-0.2,0.5-0.5,0.9-0.9,1.2c-0.5,0.4-1,0.7-1.6,0.8c-0.8,0.2-1.5,0.3-2.3,0.3h-6.4v-14h6.8c1.1-0.1,2.1,0.2,3,0.9
		c0.8,0.6,1.2,1.6,1.1,2.6c0,0.6-0.1,1.3-0.5,1.8c-0.4,0.5-0.9,0.9-1.5,1.2l0,0c0.8,0.1,1.5,0.6,2,1.2c0.5,0.7,0.7,1.5,0.7,2.4
		C26.2,23.8,26,24.4,25.8,24.9z"/>
</g>
</svg>
