<?xml version="1.0" encoding="utf-8"?>
<!-- Generator: Adobe Illustrator 23.0.1, SVG Export Plug-In . SVG Version: 6.00 Build 0)  -->
<svg version="1.1" id="Слой_1" xmlns="http://www.w3.org/2000/svg" xmlns:xlink="http://www.w3.org/1999/xlink" x="0px" y="0px"
	 viewBox="0 0 64 64" style="enable-background:new 0 0 64 64;" xml:space="preserve">
<style type="text/css">
	.st0{fill:none;}
	.st1{fill:#666666;}
</style>
<g>
	<title>background</title>
	<rect id="canvas_background" x="-1" y="-1" class="st0" width="582" height="402"/>
</g>
<g>
	<title>Layer 1</title>
	<path id="svg_1" class="st1" d="M50.8,3.1C50.4,0.3,43.9,0,40.2,0s-7.6,0.4-12.6,3.1c-5,2.7-6.8,7.4-7.4,10.3s0.1,11.3,0.1,11.5
		c0,0.2-3.9,0.2-5.4,0.3c-1.5,0.1-1.8,0.7-1.9,1.1c-0.1,0.4,0.6,11.4,0.6,11.4l0.5,3.9c0.8,0.5,5,0.3,5.7,0.4c0.7,0.1,1,1.1,1,3.9
		c0.1,2.8,0.5,13.4,0.5,15.5c0.1,2.2,1,2.2,3.4,2.2S36.1,64,36.7,64s1-0.7,1-2.7c0-2,0.7-19.2,0.7-19.6c0.1-0.4,1.4,0,2.6,0
		s6.8-0.4,7.7-0.5c1-0.1,1.4-10.4,1.4-13.7s-2.1-3.5-3.5-3.6c-1.4-0.1-7.9,0.2-8.3-0.1c-0.4-0.3,1.2-5.4,3.4-6.4
		c2.1-1.1,7.4-0.5,8.1-0.3c0.7,0.1,1.1-1.4,1.2-2.6C51,13.3,51.1,5.9,50.8,3.1C50.8,3.1,50.8,3.1,50.8,3.1z M46.1,25.1
		c0.2,0,1.1,1.1,1.4,1.5s-0.1,1.2-0.2,1.3s-1.2-1.8-1.3-2C45.8,25.5,46,25.1,46.1,25.1z M49.5,12.7c-0.6,0.1-6.4-0.5-9.6,0.7
		c-3.2,1.2-5.1,4.5-5.3,6.4c-0.2,1.8-0.3,5.3,0.3,5.3s5.1,0.1,6.9,0.2c1.8,0.1,2.7,0,2.9,0.2c0.2,0.2,2.6,3.8,2.6,4
		s-0.3,1.4-0.4,1.3s-2.4-4.2-2.6-4c-0.2,0.2-0.6,0.8-0.3,1.2c0.3,0.4,2.8,4.2,2.7,4.3c0,0.2-0.3,1.1-0.5,0.8c-0.2-0.2-3-5.1-3.1-5
		c-0.2,0.1-0.6,0.7-0.4,1.1c0.2,0.4,3.2,4.6,3.3,4.9c0,0.2,0,2-0.2,1.9s-2.9-5.2-3.4-5.2c-0.5,0-0.6,0.9-0.4,1.2
		c0.3,0.3,3.5,5.1,3.5,5.2s-0.7,0.6-1,0.4c-0.3-0.2-2.9-5.3-3.2-5.3s-1,0.3-0.7,0.7c0.2,0.4,2.8,4.5,2.6,4.5c-0.1,0-0.6,0.2-1-0.2
		c-0.4-0.4-2.4-4-2.7-3.9c-0.3,0.1-0.7,0.6-0.5,1c0.3,0.3,2.5,3.2,2.3,3.3c-0.3,0.1-1.6,0-1.7-0.1c-0.1-0.1-1.4-2.7-1.7-2.7
		c-0.3,0-0.7,0.5-0.5,0.8c0.2,0.3,1.2,1.9,1.1,1.9c-0.1,0-3-0.2-3.1,0.2c-0.1,0.4,0.2,2.8,0,2.7c-0.2-0.1-1.5-2.7-1.7-2.7
		s-0.6,0.8-0.4,1.1c0.1,0.3,2.1,2.8,2.2,3.1s0.1,2.2-0.1,1.9s-2.1-3.7-2.2-3.7c-0.1,0.1-0.5,1-0.4,1.2s2.7,3.9,2.7,4.1
		s0.1,2.8,0,2.6c-0.1-0.2-2.9-5.5-3.2-5.5c-0.2,0-0.4,1.2-0.3,1.5s3.3,5.3,3.3,5.5c0,0.3,0.1,1.6-0.1,1.5s-3.5-6.4-3.7-6.3
		c-0.2,0.1-0.3,1-0.2,1.4s3.9,6.3,3.9,6.4c0,0.1,0,2.8-0.2,2.6c-0.1-0.1-4-6.9-4.2-6.9c-0.2,0-0.4,1.2-0.2,1.5
		c0.2,0.3,4.5,6.5,4.5,6.8c0,0.3,0.2,1.9,0,1.9c-0.2-0.1-4.7-7.7-4.9-7.7c-0.2,0-0.4,1.1-0.3,1.3c0.1,0.2,5.1,7.9,5.1,8.2
		s0,0.5-0.3,0.5c-0.3,0-0.6,0-0.9-0.3s-4.5-7.3-4.8-7.2s-0.4,1.2-0.3,1.5c0.1,0.4,4.5,6,4.4,6c-0.2,0.1-6-0.4-6.5-0.4
		c-0.5,0-0.8-0.1-0.8-0.1s0.2-0.3-0.4-0.9s-1.4-1.5-1.7-1.3c-0.4,0.2-0.2,0.6,0,0.9c0.2,0.2,1.1,0.9,1,1.1c-0.2,0.1-2.5,0-2.6-0.3
		c-0.1-0.2-0.1-9.7-0.2-13c-0.1-3.3-0.2-8-0.9-8.5c-0.7-0.5-6-0.6-6.3-0.9c-0.2-0.2-0.9-10.7-0.5-10.8c0.4-0.1,5.4,0.1,6.2-0.4
		c0.8-0.5,1-1.4,0.9-2.6c-0.1-1.2-0.9-9.4,0.6-12.6s4.5-6.2,9.1-8c4.6-1.8,10.3-1.7,14.3-1.2c4,0.5,4.4,1.2,4.4,3.2
		C50,6.6,50,12.6,49.5,12.7C49.5,12.7,49.5,12.7,49.5,12.7z M22.7,26.2c-0.2,0-0.2,1-0.2,1.3c0,0.4-2.1,0.1-2.6,0.1
		c-0.5,0-1,0.1-0.9,0.5c0,0.2,0,0.6,0.2,0.7c0.2,0.1,4.2,0.1,4.6,0.1s0.3-2,0.2-2.5C23.9,26,23,26.1,22.7,26.2
		C22.7,26.2,22.7,26.2,22.7,26.2z M44.1,2.8c-0.6-0.1-0.8,1-0.6,1.2c0.3,0.1,2.3,0.4,2.8,0.5c0.6,0.1,0.9,0,1,0.4s0,3.7,0.2,3.8
		c0.2,0.2,1.2,0.5,1.2-0.4s0.1-4.4-0.3-4.7C48.2,3.3,44.8,3,44.1,2.8C44.1,2.8,44.1,2.8,44.1,2.8z"/>
</g>
</svg>
