<svg width="64" height="64" xmlns="http://www.w3.org/2000/svg">

 <g>
  <title>background</title>
  <rect fill="none" id="canvas_background" height="402" width="582" y="-1" x="-1"/>
 </g>
 <g>
  <title>Layer 1</title>
  <path fill="#007fff" id="svg_1" d="m50.752,3.09c-0.325,-2.76 -6.82,-3.09 -10.522,-3.09s-7.6,0.395 -12.6,3.09c-5.002,2.698 -6.756,7.434 -7.406,10.328s0.13,11.313 0.13,11.51c0,0.198 -3.897,0.198 -5.39,0.264c-1.495,0.066 -1.82,0.724 -1.95,1.118c-0.13,0.395 0.65,11.38 0.65,11.38l0.455,3.946c0.843,0.46 5,0.263 5.715,0.395c0.714,0.133 0.974,1.12 1.04,3.882c0.064,2.763 0.454,13.353 0.52,15.523c0.064,2.17 1.038,2.17 3.377,2.236s11.366,0.33 11.885,0.33s1.04,-0.658 1.04,-2.697c0,-2.04 0.65,-19.207 0.713,-19.6c0.065,-0.396 1.43,0 2.598,0s6.755,-0.396 7.73,-0.527c0.973,-0.132 1.363,-10.393 1.363,-13.747s-2.142,-3.487 -3.506,-3.553c-1.364,-0.066 -7.86,0.197 -8.25,-0.066c-0.39,-0.262 1.235,-5.393 3.38,-6.445c2.142,-1.052 7.404,-0.46 8.053,-0.33c0.65,0.133 1.104,-1.38 1.17,-2.564c0.065,-1.183 0.13,-8.616 -0.195,-11.38l0,-0.003zm-4.644,22.007c0.195,0 1.137,1.052 1.396,1.48s-0.13,1.184 -0.227,1.25c-0.097,0.066 -1.17,-1.776 -1.332,-2.04c-0.162,-0.263 0.033,-0.69 0.163,-0.69zm3.345,-12.4c-0.585,0.067 -6.365,-0.525 -9.613,0.66c-3.248,1.183 -5.066,4.538 -5.26,6.38c-0.196,1.84 -0.26,5.26 0.26,5.26s5.13,0.1 6.884,0.165c1.754,0.065 2.696,-0.034 2.858,0.196c0.162,0.23 2.63,3.75 2.598,3.98c-0.032,0.23 -0.26,1.413 -0.39,1.25s-2.436,-4.21 -2.598,-4.046c-0.162,0.164 -0.585,0.79 -0.292,1.217c0.292,0.428 2.76,4.177 2.728,4.34c-0.032,0.165 -0.325,1.053 -0.487,0.823c-0.16,-0.23 -2.954,-5.065 -3.117,-5c-0.162,0.067 -0.617,0.692 -0.39,1.086c0.227,0.395 3.248,4.637 3.28,4.867c0.032,0.23 -0.032,1.973 -0.227,1.908c-0.195,-0.065 -2.923,-5.228 -3.378,-5.228c-0.455,0 -0.617,0.888 -0.357,1.217c0.26,0.328 3.476,5.097 3.476,5.195s-0.747,0.56 -1.007,0.362c-0.26,-0.197 -2.89,-5.262 -3.15,-5.262s-0.975,0.33 -0.748,0.69c0.227,0.363 2.76,4.474 2.63,4.507c-0.13,0.033 -0.616,0.197 -0.973,-0.197c-0.358,-0.395 -2.404,-4.012 -2.664,-3.947c-0.26,0.066 -0.747,0.625 -0.487,0.954c0.26,0.33 2.532,3.19 2.272,3.256c-0.26,0.066 -1.56,0.033 -1.656,-0.1c-0.097,-0.13 -1.396,-2.696 -1.69,-2.696c-0.29,0 -0.68,0.46 -0.52,0.756c0.163,0.296 1.17,1.908 1.073,1.908c-0.098,0 -3.02,-0.164 -3.12,0.197c-0.096,0.362 0.163,2.795 0,2.697c-0.16,-0.1 -1.46,-2.73 -1.655,-2.73c-0.195,0 -0.552,0.756 -0.422,1.085c0.13,0.33 2.143,2.795 2.208,3.06s0.066,2.202 -0.064,1.94s-2.078,-3.717 -2.208,-3.652c-0.13,0.066 -0.455,0.954 -0.39,1.15s2.663,3.882 2.728,4.145s0.097,2.763 -0.032,2.565c-0.13,-0.197 -2.923,-5.525 -3.15,-5.492c-0.227,0.034 -0.422,1.152 -0.292,1.514c0.13,0.362 3.313,5.262 3.345,5.525c0.032,0.262 0.065,1.578 -0.065,1.48s-3.54,-6.414 -3.702,-6.315c-0.162,0.1 -0.292,1.02 -0.195,1.414c0.097,0.394 3.897,6.313 3.93,6.445c0.032,0.132 -0.032,2.763 -0.162,2.63c-0.13,-0.13 -3.962,-6.905 -4.19,-6.873c-0.226,0.033 -0.39,1.217 -0.226,1.513c0.162,0.296 4.482,6.48 4.514,6.808c0.033,0.33 0.163,1.94 0,1.875c-0.16,-0.066 -4.708,-7.73 -4.87,-7.696c-0.162,0.033 -0.39,1.052 -0.325,1.283c0.065,0.23 5.13,7.926 5.13,8.19s-0.03,0.492 -0.324,0.492c-0.29,0 -0.616,0.033 -0.908,-0.263c-0.292,-0.296 -4.482,-7.268 -4.774,-7.202c-0.292,0.066 -0.357,1.184 -0.26,1.546c0.097,0.362 4.547,5.953 4.384,6.02c-0.162,0.065 -6.04,-0.363 -6.495,-0.363c-0.455,0 -0.844,-0.132 -0.844,-0.132s0.195,-0.263 -0.357,-0.855s-1.364,-1.546 -1.72,-1.316c-0.358,0.23 -0.228,0.625 0,0.855c0.226,0.23 1.136,0.92 0.973,1.052c-0.163,0.13 -2.502,-0.034 -2.6,-0.264c-0.096,-0.23 -0.13,-9.67 -0.194,-12.958c-0.065,-3.29 -0.227,-7.992 -0.942,-8.485c-0.714,-0.493 -6.04,-0.625 -6.333,-0.92c-0.23,-0.234 -0.908,-10.722 -0.52,-10.788c0.39,-0.066 5.392,0.132 6.236,-0.395c0.844,-0.526 1.04,-1.447 0.91,-2.63c-0.13,-1.185 -0.91,-9.407 0.584,-12.564s4.482,-6.183 9.093,-8.025c4.611,-1.841 10.326,-1.711 14.289,-1.183c3.962,0.526 4.352,1.25 4.417,3.157c0.063,1.91 0.128,7.895 -0.457,7.96l0,0.002zm-26.728,13.485c-0.227,0.032 -0.195,0.986 -0.195,1.347c0,0.362 -2.11,0.132 -2.63,0.1c-0.52,-0.034 -1.026,0.106 -0.943,0.525c0.032,0.164 0,0.56 0.195,0.658c0.195,0.1 4.222,0.132 4.612,0.132c0.39,0 0.292,-2.04 0.227,-2.5c-0.063,-0.46 -1.038,-0.296 -1.265,-0.263l-0.001,0.001zm32.768,-32.759c-1.038,0.526 -2.987,2.105 -4.188,4.11c-1.202,2.007 -1.526,3.52 -1.56,4.836c-0.03,1.316 0.19,2.184 0.423,2.302c0.26,0.132 0.617,-0.033 0.91,-0.033c0.29,0 -0.033,-3.78 1.688,-6.774c1.72,-2.993 4.19,-3.716 4.612,-3.75c0.422,-0.032 0.357,-0.657 0.26,-1.117c-0.098,-0.462 -1.105,-0.1 -2.144,0.426l-0.001,0zm7.762,6.38c-0.26,-0.065 -1.396,0.297 -1.98,0.89c-0.586,0.59 -1.69,2.498 -1.885,3.123c-0.195,0.624 -0.104,1.51 0.227,1.643c0.324,0.132 0.68,0 0.908,-0.164c0.227,-0.165 0.227,-1.48 0.747,-2.6c0.52,-1.117 2.11,-1.84 2.273,-1.972c0.164,-0.132 -0.03,-0.855 -0.29,-0.92zm-19.161,3.027c-0.578,-0.11 -0.844,1.02 -0.552,1.15c0.292,0.133 2.273,0.43 2.825,0.494c0.552,0.066 0.91,0.033 1.04,0.395s-0.033,3.65 0.194,3.815c0.228,0.164 1.203,0.493 1.203,-0.362s0.13,-4.374 -0.26,-4.703c-0.39,-0.328 -3.767,-0.657 -4.45,-0.79l0,0.001zm0.585,49.856c-0.393,0.106 -0.52,0.362 -0.162,1.052c0.357,0.69 2.5,3.09 2.825,3.09c0.326,0 0.813,-0.394 0.488,-0.82c-0.325,-0.428 -2.663,-3.453 -3.15,-3.322l-0.001,0zm20.816,-53.968c-0.13,-0.1 -0.713,0.56 -0.584,0.79c0,0 2.696,3.55 3.053,4.044c0.357,0.494 0.714,0.593 1.072,0.396c0.356,-0.197 -0.13,-0.79 -0.39,-1.316s-3.02,-3.814 -3.15,-3.913l-0.001,-0.001z"/>
 </g>
</svg>