<svg xmlns="http://www.w3.org/2000/svg" version="1.1" xmlns:xlink="http://www.w3.org/1999/xlink" width="1000" height="1000"><metadata><rdf:RDF xmlns:rdf="http://www.w3.org/1999/02/22-rdf-syntax-ns#" xmlns:dc="http://purl.org/dc/elements/1.1/"><rdf:Description><dc:creator>RealFaviconGenerator</dc:creator><dc:source>https://realfavicongenerator.net</dc:source></rdf:Description></rdf:RDF></metadata><g clip-path="url(#SvgjsClipPath1141)"><rect width="1000" height="1000" fill="#ffffff"></rect><g transform="matrix(4.444444444444445,0,0,4.444444444444445,100,100)"><svg xmlns="http://www.w3.org/2000/svg" version="1.1" xmlns:xlink="http://www.w3.org/1999/xlink" id="new-logo" x="0px" y="0px" viewBox="0 0 180 180" enable-background="new 0 0 180 180" xml:space="preserve" width="180" height="180"><polygon id="main-letter" fill="#242526" points="15.9,66.7 32.1,66.7 60.6,128.6 89.9,66.7 119.5,128.6 149.2,66.7 164.2,66.7 
	119.8,164.5 90,100.9 61.8,164.5 "></polygon><g id="star">
	<path fill="#242526" d="M87.7,43.2c4.1-2,8.9-2.1,13,0C96.6,45.3,91.8,45.3,87.7,43.2L87.7,43.2z"></path>
	<path fill="#242526" d="M94.1,36.7c2,4.1,2.1,8.9,0,13C92.1,45.7,92.1,40.8,94.1,36.7L94.1,36.7z"></path>
</g><linearGradient id="arrow_00000117676078170761793680000014769530192435225241_" gradientUnits="userSpaceOnUse" x1="58.7168" y1="-739.08" x2="58.7368" y2="-714.6801" gradientTransform="matrix(1 0 0 -1 0 -684)">
    <stop offset=".08" style="stop-color:#242526"></stop>
    <stop offset=".21" style="stop-color:#242526"></stop>
    <stop offset=".33" style="stop-color:#242526"></stop>
    <stop offset=".44" style="stop-color:#242526" stop-opacity="0.9"></stop>
    <stop offset=".55" style="stop-color:#242526" stop-opacity="0.8"></stop>
    <stop offset=".66" style="stop-color:#242526" stop-opacity="0.7"></stop>
    <stop offset=".76" style="stop-color:#242526" stop-opacity="0.6"></stop>
    <stop offset=".87" style="stop-color:#242526" stop-opacity="0.5"></stop>
    <stop offset=".97" style="stop-color:#242526" stop-opacity="0.2"></stop>
    <stop offset="1" style="stop-color:#242526" stop-opacity="0.1"></stop>
</linearGradient><path id="arrow" fill="url(#arrow_00000117676078170761793680000014769530192435225241_)" d="M58.7,90.4c-1.7-4-4.6-9.2-9.9-13.2
	c-0.8-0.6-1.5-1.1-2.3-1.6c4.3-1.1,7.3-0.5,9.2,0.4c0.1,0,0.2,0.1,0.3,0.1c0-14.9,2-44.6,2-44.6h1.3c0,0,2.1,29.8,2.1,44.6
	c0.1,0,0.2-0.1,0.3-0.1c1.9-0.9,4.9-1.5,9.2-0.4c-0.8,0.5-1.5,1-2.3,1.6C63.3,81.3,58.6,90.4,58.7,90.4"></path><linearGradient id="arrow-2_00000124876319688651777670000011741457053570377900_" gradientUnits="userSpaceOnUse" x1="121.3168" y1="-729.9" x2="121.3368" y2="-698.46" gradientTransform="matrix(1 0 0 -1 0 -684)">
    <stop offset=".08" style="stop-color:#242526"></stop>
    <stop offset=".21" style="stop-color:#242526"></stop>
    <stop offset=".33" style="stop-color:#242526"></stop>
    <stop offset=".44" style="stop-color:#242526" stop-opacity="0.9"></stop>
    <stop offset=".55" style="stop-color:#242526" stop-opacity="0.8"></stop>
    <stop offset=".66" style="stop-color:#242526" stop-opacity="0.7"></stop>
    <stop offset=".76" style="stop-color:#242526" stop-opacity="0.6"></stop>
    <stop offset=".87" style="stop-color:#242526" stop-opacity="0.5"></stop>
    <stop offset=".97" style="stop-color:#242526" stop-opacity="0.2"></stop>
    <stop offset="1" style="stop-color:#242526" stop-opacity="0.1"></stop>
</linearGradient><path id="arrow-2" fill="url(#arrow-2_00000124876319688651777670000011741457053570377900_)" d="M121.3,91.5
	c-2.2-5.2-6-11.8-12.8-17c-1-0.8-2-1.4-3-2.1c5.5-1.4,9.4-0.6,11.9,0.5c0.1,0.1,0.2,0.1,0.4,0.2c0-19.2,2.6-57.5,2.6-57.5h1.7
	c0,0,2.6,38.3,2.7,57.5c0.1-0.1,0.2-0.1,0.4-0.2c2.5-1.1,6.4-1.9,11.9-0.5c-1,0.6-2,1.3-3,2.1C127.2,79.6,121.2,91.5,121.3,91.5"></path></svg></g></g><defs><clipPath id="SvgjsClipPath1141"><rect width="1000" height="1000" x="0" y="0" rx="500" ry="500"></rect></clipPath></defs></svg>