<?xml version="1.0" encoding="utf-8"?>
<!-- Generator: Adobe Illustrator 23.0.1, SVG Export Plug-In . SVG Version: 6.00 Build 0)  -->
<svg version="1.1" id="Слой_1" xmlns="http://www.w3.org/2000/svg" xmlns:xlink="http://www.w3.org/1999/xlink" x="0px" y="0px"
	 viewBox="0 0 512 396" style="enable-background:new 0 0 512 396;" xml:space="preserve">
<style type="text/css">
	.st0{fill:none;}
	.st1{fill:#FFFF00;stroke:#000000;stroke-width:2;stroke-miterlimit:10;}
</style>
<g>
	<title>background</title>
	<rect id="canvas_background" x="-1" y="-58" class="st0" width="582" height="402"/>
</g>
<g>
	<title>Layer 1</title>
	<path id="svg_2" d="M112.2,10.6h84.2v236c0,106.4-51,143.5-132.4,143.5c-19.9,0-45.4-3.3-62.1-8.9l9.4-68.1
		c11.6,3.9,26.6,6.6,43.2,6.6c35.5,0,57.6-16.1,57.6-73.7V10.6L112.2,10.6z"/>
	<path id="svg_3" class="st1" d="M269.5,297.6c22.2,11.6,57.6,23.3,93.6,23.3c38.8,0,59.3-16.1,59.3-41c0-22.7-17.7-36.6-62.6-52.1
		c-62.1-22.2-103-56.5-103-111.4C256.7,52.8,310.5,4.5,398,4.5c42.7,0,73.1,8.3,95.3,18.8L474.5,91c-14.4-7.2-41.6-17.7-77.6-17.7
		c-36.6,0-54.3,17.2-54.3,36c0,23.8,20.5,34.3,69.3,53.2c65.9,24.4,96.4,58.7,96.4,111.9c0,62.6-47.6,115.8-150.1,115.8
		c-42.7,0-84.8-11.6-105.8-23.3L269.5,297.6L269.5,297.6z"/>
</g>
</svg>
