<?xml version="1.0" encoding="utf-8"?>
<!-- Generator: Adobe Illustrator 23.0.1, SVG Export Plug-In . SVG Version: 6.00 Build 0)  -->
<svg version="1.1" id="Layer_1" xmlns="http://www.w3.org/2000/svg" xmlns:xlink="http://www.w3.org/1999/xlink" x="0px" y="0px"
	 viewBox="0 0 24 24" style="enable-background:new 0 0 24 24;" xml:space="preserve">
<style type="text/css">
	.st0{fill:#666666;}
</style>
<g>
	<path class="st0" d="M5.3,24H0.1C0.4,18.8,0.7,13.7,1,8.5c1.4-0.5,2.8-1.1,4.3-1.6C4.9,8.4,4.5,10.1,4.3,12C3.8,16.9,4.5,21,5.3,24
		z M24,24h-5.1v-9.1c0-2.4-0.8-3.6-2.5-3.6c-1.3,0-2.2,0.7-2.6,2c0,2.2,0,10.7,0,10.7H8.6c0.3-1.5,0.5-3.2,0.6-5
		c0.3-4.6,0-8.8-0.6-12.1h4.1l0.3,3.4h0.1c1.1-1.7,2.7-2.9,5-2.9c1.8,0,3.2,0.5,4.3,1.7c1.1,1.2,1.6,2.9,1.6,5.2V24z"/>
</g>
<g>
	<ellipse class="st0" cx="2.6" cy="2.6" rx="2.7" ry="2.6"/>
</g>
</svg>
