<?xml version="1.0" encoding="utf-8"?>
<!-- Generator: Adobe Illustrator 23.0.1, SVG Export Plug-In . SVG Version: 6.00 Build 0)  -->
<svg version="1.1" id="Слой_1" xmlns="http://www.w3.org/2000/svg" xmlns:xlink="http://www.w3.org/1999/xlink" x="0px" y="0px"
	 viewBox="0 0 69.6 93.7" style="enable-background:new 0 0 69.6 93.7;" xml:space="preserve">
<style type="text/css">
	.st0{fill:#666666;}
	.st1{fill:#666666;stroke:#666666;stroke-width:6;stroke-linecap:round;stroke-linejoin:round;stroke-miterlimit:10;}
</style>
<g>
	<path class="st0" d="M35.1,48.8c-0.2,0.5-5.5-2.7-11.1-0.7c-1.7,0.6-3.2,1.6-4.8,2.7c-1.6,1.2-2.9,2.4-4.1,3.8
		c-1.1,1.2-3.8,4.5-5.2,9.6c-0.7,2.5-1.6,5.7-0.5,9.5c0.8,2.9,2.3,4.8,2.8,5.4c1.6,1.9,3.3,2.9,5.2,3.9c2.8,1.6,5.1,2.3,7,2.8
		c2.2,0.7,6.2,1.8,11.5,1.8c1.3,0,4.3-0.1,8-0.8c4.7-1,7.3-2.4,7.9-2.8c2-1.1,2.9-2.1,3.1-2.3c1.4-1.4,2-2.8,2.8-4.7
		c1-2.4,1.5-4.3,1.7-5.2c0.7-3.6,0.9-7.4,0.4-11c-0.3-1.8-0.7-3.6-1.2-5.3c-0.5-1.7-1.3-3.4-2.1-5c-0.8-1.7-1.9-3.2-2.9-4.8
		c-1.1-1.6-2.2-2.9-3.6-4.3c-1.3-1.4-2.8-2.8-4.3-4.3c-1.5-1.5-2.9-3.1-4.2-4.8c-0.7-0.8-1.3-1.7-1.9-2.6c-0.6-0.9-1.2-1.9-1.7-2.8
		c-0.5-1-1-1.9-1.4-2.9c-0.4-1-0.7-2-1.1-3.1c-0.7-2.1-0.9-4.4-0.7-6.6c0.1-1.1,0.3-2.1,0.5-3.1c0.3-1,0.5-2,0.8-3
		C36,8.1,36.2,8,36.4,8c0.1,0,0.2,0.2,0.2,0.3l0,0l0,3c0,1,0.1,2,0.2,3c0.2,1.9,0.8,3.7,1.6,5.4c0.9,1.7,1.9,3.4,3,4.9
		c0.6,0.8,1.2,1.5,1.8,2.2c0.7,0.7,1.3,1.4,2,2.1c2.8,2.8,5.8,5.1,9.1,7.9c1.6,1.4,3.2,3.1,4.6,4.8c1.4,1.7,2.6,3.6,3.7,5.5
		c1.1,2,2,4,2.7,6.2c0.7,2.2,1.1,4.4,1.3,6.6c0.2,2.2,0.2,4.5,0,6.7c-0.2,2.2-0.6,4.4-1.2,6.6c-0.6,2.2-1.4,4.3-2.5,6.3
		c-0.3,0.5-0.6,1-0.9,1.5c-0.3,0.5-0.6,1-0.9,1.4c-0.3,0.5-0.7,0.9-1,1.4l-1.1,1.3c-2.8,2.4-5.4,3.8-7.2,4.6c-3,1.3-5.6,1.8-8.6,2.3
		c-1.7,0.3-4.1,0.7-7.4,0.8c-1.2,0-6.4,0.1-13-1.5c-1.7-0.4-3.5-0.9-5.8-1.8c-2.3-1-4.8-2-7.4-4.3c-1.1-1-4.6-4.1-5.9-9.3
		c0,0-0.8-3.2-0.5-6.9c0.1-1.1,0.3-2.3,0.5-3.4c0.1-0.6,0.2-1,0.4-1.6c0.1-0.5,0.3-1.1,0.5-1.6c1.4-4.2,3.8-8.2,7-11.3
		c1.6-1.6,3.5-2.9,5.4-4c1.3-0.7,3.6-2,6.3-2.4C29.5,43.8,35.3,48.2,35.1,48.8z"/>
</g>
<path class="st1" d="M27.5,56.3c0,2.8-0.1,5.6-0.2,8.5c-0.1,3.8-0.3,7.6-0.5,11.3"/>
<path class="st1" d="M43.7,56.4c0.3,2.8,0.6,5.9,0.7,9.2c0.1,3.7,0,7.1-0.2,10.3"/>
<path class="st0" d="M97.4,80"/>
</svg>
