<svg width="64" height="64" xmlns="http://www.w3.org/2000/svg">

 <g>
  <title>background</title>
  <rect fill="none" id="canvas_background" height="402" width="582" y="-1" x="-1"/>
 </g>
 <g>
  <title>Layer 1</title>
  <path fill="#e0b353" id="svg_1" d="m61.076,16.184c-5.49,-14.532 -26.186,-17.374 -32.416,-15.794c-4.022,1.02 -17.318,2 -23.865,14.215c-6.548,12.215 -7.498,29.905 4.223,40.435s28.616,12.425 42.238,2.21s15.31,-26.535 9.82,-41.066zm-0.238,20.35c-0.08,0.236 -1.11,2.526 -1.11,2.526s-4.91,-6.24 -5.147,-6.24s-0.553,0.95 -0.395,1.186c0.158,0.237 5.07,6.24 5.07,6.24l-1.347,2.21c0,0 -4.277,-5.765 -4.593,-5.844c-0.317,-0.08 -0.95,0.474 -0.713,0.71c0.238,0.238 4.752,5.766 4.514,6.24s-1.98,2.053 -1.98,2.053s-3.643,-5.37 -3.88,-5.45c-0.24,-0.078 -1.11,0.712 -0.872,1.186c0.238,0.475 3.8,5.37 3.564,5.687c-0.238,0.316 -1.98,2.132 -1.98,2.132s-2.93,-4.976 -3.247,-5.055c-0.316,-0.08 -1.187,0.948 -0.95,1.106c0.24,0.16 3.565,4.74 3.406,5.055c-0.158,0.316 -1.98,1.58 -1.98,1.58l-2.93,-4.503l-1.11,1.027c0,0 2.614,4.185 2.535,4.58c-0.078,0.395 -2.296,1.58 -2.296,1.58l-2.613,-4.58c0,0 -1.108,0.552 -1.108,0.79c0,0.236 2.613,4.738 2.613,4.738l-1.98,0.87c0,0 -2.376,-4.74 -2.613,-4.818c-0.238,-0.08 -1.11,-0.158 -0.95,0.474s2.138,4.975 2.138,4.975l-1.98,0.63c0,0 -2.138,-4.343 -2.376,-4.5c-0.238,-0.16 -1.267,0.236 -1.11,0.473c0.16,0.237 2.377,4.74 2.06,4.817s-2.772,0.316 -2.772,0.316s-1.82,-4.186 -2.06,-4.265c-0.237,-0.078 -1.03,0.16 -0.95,0.554c0.08,0.395 1.506,3.87 1.506,3.87l-2.142,0c0,0 -1.426,-2.922 -1.742,-3.238c-0.317,-0.316 -1.346,0.237 -1.11,0.474c0.24,0.237 1.427,2.922 1.19,3c-0.24,0.08 -10.138,0.79 -18.85,-6.633s-10.058,-18.877 -8.87,-25.747c1.192,-6.87 6.734,-18.717 17.346,-22.43c3.735,-1.305 10.533,-4.58 21.462,-1.894s16.472,10.424 17.422,12.004s1.663,4.344 1.663,4.344s-3.642,-4.66 -4.196,-4.74c-0.554,-0.078 -0.87,0.79 -0.634,1.186c0.238,0.395 4.83,4.896 5.148,5.45c0.317,0.552 0.95,3.87 0.95,3.87s-4.118,-5.37 -4.593,-5.45c-0.475,-0.08 -0.792,0.79 -0.634,1.027c0.16,0.237 5.386,5.923 5.466,6.24c0.08,0.315 0.475,3.553 0.475,3.553s-4.988,-5.923 -5.305,-6.002c-0.317,-0.08 -0.554,1.106 -0.554,1.106s5.465,6.002 5.545,6.318c0.08,0.316 0.158,3.396 0.158,3.396s-5.231,-6.318 -5.627,-6.318s-0.475,1.343 -0.475,1.343s5.623,6.553 5.543,6.791l0,0zm-46.408,-22.826c2.772,-3.713 6.494,-5.055 6.494,-5.055s-0.475,-1.027 -0.792,-1.106c-0.317,-0.08 -3.168,0.947 -6.652,4.66s-4.375,6.43 -4.198,6.87c0.158,0.395 1.11,0.87 1.584,0.632c0.475,-0.237 0.792,-2.29 3.564,-6.003l0,0.002zm28.827,2.292c-1.82,0.158 -26.61,11.45 -29.857,13.426c-3.247,1.974 -2.613,4.107 -1.822,5.212s8.553,3 8.553,3c0.555,0.396 4.99,9.636 5.703,9.715c0.713,0.08 5.544,-6.555 6.02,-6.713c0.474,-0.158 2.93,0.87 4.592,1.422c1.663,0.553 5.465,2.21 6.81,1.106c1.347,-1.106 3.644,-17.61 4.198,-22.192c0.556,-4.58 -2.375,-5.134 -4.196,-4.976l-0.001,0zm1.505,3.396c-0.053,0.21 -1.426,1.685 -1.426,1.685l-0.21,-1.368l1.425,-1.422c0,0 0.264,0.895 0.212,1.106l-0.001,-0.001zm-32.075,12.714c0.38,-1.434 3.722,-2.526 7.365,-4.5s22.888,-10.19 23.442,-10.27s0.158,0.632 0.158,0.632s-22.412,18.166 -22.807,18.166c-0.396,0 -8.87,-1.342 -8.158,-4.028l0,0zm29.857,-10.03c-0.106,0.16 -1.848,2.107 -1.848,2.107s-0.528,-2 -0.422,-2.264c0,0 1.742,-1.58 1.795,-1.422c0.052,0.16 0.58,1.423 0.474,1.58l0.001,-0.001zm-2.534,3.476l-1.426,1.844l-1.003,-3.213c0,0 1.638,-1.474 1.69,-1.316c0.053,0.158 0.74,2.686 0.74,2.686l-0.001,-0.001zm-7.392,2.79c0.158,-0.105 1.32,-1.316 1.426,-1.158c0.106,0.158 1.584,4.317 1.478,4.528c-0.106,0.21 -1.056,1.37 -1.056,1.37s-1.848,-4.74 -1.848,-4.74zm1.162,5.79l-1.003,1.107l-2.06,-5.265c0.16,-0.158 1.004,-0.895 1.004,-0.895l2.06,5.054l-0.001,-0.001zm1.16,-8c0.212,-0.16 1.268,-1.16 1.268,-1.16l1.32,3.634l-1.162,1.58l-1.425,-4.055l-0.001,0.001zm-9.133,19.48c0,0 -3.96,-8.32 -3.907,-8.478l1.848,-1.264c0,0 3.38,8.055 3.273,8.424c-0.104,0.37 -1.213,1.317 -1.213,1.317l-0.001,0.001zm2.165,-2.317c0,0 -3.326,-8.004 -3.22,-8.32c0.05,-0.15 1.055,-1.106 1.213,-1.106c0.158,0 3.22,7.845 3.168,8.055s-1.16,1.37 -1.161,1.371l0,0zm1.742,-2.423c-0.106,-0.21 -2.957,-7.424 -2.798,-7.687c0.174,-0.29 0.95,-0.79 0.95,-0.79l2.534,7.424c0,0 -0.58,1.263 -0.686,1.053zm1.11,-3.265c0,0 -2.113,-5.74 -1.955,-6.107c0.087,-0.205 0.844,-0.843 1.055,-0.843c0.21,0 2.217,5.107 2.165,5.318c-0.053,0.21 -1.267,1.632 -1.267,1.632l0.002,0zm10.77,4.134c-1.11,0.553 -9.503,-2.685 -9.503,-3c0,-0.317 13.227,-18.402 13.702,-18.876c0.28,-0.28 -3.09,21.323 -4.199,21.876l0,0z"/>
 </g>
</svg>