<svg width="430.1" height="430.1" xmlns="http://www.w3.org/2000/svg">

 <g>
  <title>background</title>
  <rect fill="none" id="canvas_background" height="402" width="582" y="-1" x="-1"/>
 </g>
 <g>
  <title>Layer 1</title>
  <path fill="#005fbf" id="WordPress" d="m0,215.1c0,118.8 96.3,215.1 215.1,215.1c118.8,0 215.1,-96.3 215.1,-215.1c-0.1,-118.8 -96.4,-215.1 -215.1,-215.1c-118.8,0 -215.1,96.3 -215.1,215.1zm16.6,0c0,-28.8 6.2,-56.1 17.2,-80.8l94.7,259.4c-66.3,-32.2 -111.9,-100.1 -111.9,-178.6zm198.5,198.4c-19.5,0 -38.3,-2.8 -56.1,-8.1l59.6,-173l61,167.1c0.4,1 0.9,1.9 1.4,2.7c-20.7,7.4 -42.8,11.3 -65.9,11.3zm160.4,-202.2c11.3,-28.3 15.1,-51 15.1,-71.1c0,-7.3 -0.5,-14.1 -1.4,-20.4c15.5,28.3 24.3,60.7 24.3,95.2c0,73.2 -39.7,137.2 -98.7,171.5l60.7,-175.2zm-42.8,-61c7.5,13.2 16.4,30.2 16.4,54.7c0,17 -5.1,38.4 -15.1,64.2l-19.8,66.1l-71.8,-213.3c12,-0.7 22.7,-1.9 22.7,-1.9c10.7,-1.3 9.4,-17 -1.2,-16.4c0,0 -32.2,2.5 -52.9,2.5c-19.5,0 -52.3,-2.5 -52.3,-2.5c-10.7,-0.6 -11.9,15.8 -1.3,16.4c0,0 10.1,1.2 20.8,1.9l30.9,84.7l-43.4,130.3l-72.3,-215c12,-0.7 22.7,-1.9 22.7,-1.9c10.7,-1.3 9.4,-17 -1.3,-16.4c0,0 -32.1,2.5 -52.9,2.5c-3.7,0 -8.1,-0.1 -12.8,-0.2c35.5,-53.9 96.5,-89.5 165.8,-89.5c51.7,0 98.7,19.8 134,52.1c-0.8,-0.1 -1.7,-0.2 -2.5,-0.2c-19.5,0 -33.3,17 -33.3,35.2c0.1,16.5 9.5,30.4 19.6,46.7z"/>
 </g>
</svg>